<svg width="40" height="40" viewBox="0 0 40 40" fill="none" xmlns="http://www.w3.org/2000/svg">
<path d="M5.2832 12.4L19.9998 20.9167L34.6165 12.45" stroke="#292D32" stroke-width="2" stroke-linecap="round" stroke-linejoin="round"/>
<path d="M20 36.0167V20.9" stroke="#292D32" stroke-width="2" stroke-linecap="round" stroke-linejoin="round"/>
<path d="M36.0167 21.3834V15.2834C36.0167 12.9834 34.3667 10.1834 32.35 9.06674L23.4501 4.13337C21.5501 3.06671 18.45 3.06671 16.55 4.13337L7.65003 9.06674C5.63337 10.1834 3.9834 12.9834 3.9834 15.2834V24.7168C3.9834 27.0168 5.63337 29.8167 7.65003 30.9334L16.55 35.8668C17.5 36.4001 18.75 36.6667 20 36.6667C21.25 36.6667 22.5001 36.4001 23.4501 35.8668" stroke="#292D32" stroke-width="2" stroke-linecap="round" stroke-linejoin="round"/>
<path d="M32.0003 35.6667C34.9459 35.6667 37.3337 33.2789 37.3337 30.3334C37.3337 27.3878 34.9459 25 32.0003 25C29.0548 25 26.667 27.3878 26.667 30.3334C26.667 33.2789 29.0548 35.6667 32.0003 35.6667Z" stroke="#007836" stroke-width="2" stroke-linecap="round" stroke-linejoin="round"/>
<path d="M38.3337 36.6667L36.667 35" stroke="#007836" stroke-width="2" stroke-linecap="round" stroke-linejoin="round"/>
</svg>
