<svg width="87" height="103" viewBox="0 0 87 103" fill="none" xmlns="http://www.w3.org/2000/svg">
<path fillRule="evenodd" clipRule="evenodd" d="M66.8112 14.6062L76.1131 82.4489L76.9488 89.2552C77.218 91.4479 75.6588 93.4436 73.4661 93.7129L14.9059 100.903C12.7132 101.172 10.7175 99.6131 10.4482 97.4204L1.43246 23.9929C1.29785 22.8966 2.07748 21.8987 3.17381 21.7641C3.18074 21.7632 3.18767 21.7624 3.1946 21.7616L8.05297 21.2166M11.9815 20.776L16.5685 20.2614L11.9815 20.776Z" fill="white"/>
<path d="M68.0496 14.4364C67.9559 13.7524 67.3254 13.274 66.6414 13.3677C65.9575 13.4615 65.479 14.092 65.5728 14.7759L68.0496 14.4364ZM76.1131 82.4489L77.3538 82.2965C77.3531 82.2907 77.3523 82.2849 77.3515 82.2791L76.1131 82.4489ZM76.9488 89.2552L78.1895 89.1029L76.9488 89.2552ZM73.4661 93.7129L73.6184 94.9535L73.4661 93.7129ZM14.9059 100.903L15.0582 102.144L14.9059 100.903ZM10.4482 97.4204L11.6889 97.2681L10.4482 97.4204ZM1.43246 23.9929L0.191777 24.1452L1.43246 23.9929ZM3.1946 21.7616L3.33395 23.0038L3.1946 21.7616ZM8.19231 22.4589C8.87837 22.3819 9.37214 21.7634 9.29518 21.0773C9.21822 20.3913 8.59968 19.8975 7.91363 19.9744L8.19231 22.4589ZM11.8422 19.5338C11.1561 19.6107 10.6623 20.2293 10.7393 20.9153C10.8162 21.6014 11.4348 22.0951 12.1208 22.0182L11.8422 19.5338ZM16.7079 21.5036C17.3939 21.4267 17.8877 20.8081 17.8108 20.1221C17.7338 19.436 17.1153 18.9423 16.4292 19.0192L16.7079 21.5036ZM65.5728 14.7759L74.8747 82.6187L77.3515 82.2791L68.0496 14.4364L65.5728 14.7759ZM74.8724 82.6012L75.7081 89.4075L78.1895 89.1029L77.3538 82.2965L74.8724 82.6012ZM75.7081 89.4075C75.8932 90.915 74.8212 92.2871 73.3138 92.4722L73.6184 94.9535C76.4963 94.6002 78.5429 91.9807 78.1895 89.1029L75.7081 89.4075ZM73.3138 92.4722L14.7536 99.6625L15.0582 102.144L73.6184 94.9535L73.3138 92.4722ZM14.7536 99.6625C13.2461 99.8476 11.874 98.7756 11.6889 97.2681L9.20754 97.5728C9.5609 100.451 12.1803 102.497 15.0582 102.144L14.7536 99.6625ZM11.6889 97.2681L2.67314 23.8406L0.191777 24.1452L9.20754 97.5728L11.6889 97.2681ZM2.67314 23.8406C2.62266 23.4294 2.91502 23.0552 3.32615 23.0048L3.02148 20.5234C1.23993 20.7421 -0.0269697 22.3637 0.191777 24.1452L2.67314 23.8406ZM3.32615 23.0048C3.32875 23.0044 3.33135 23.0041 3.33395 23.0038L3.05526 20.5194C3.04399 20.5207 3.03273 20.522 3.02148 20.5234L3.32615 23.0048ZM3.33395 23.0038L8.19231 22.4589L7.91363 19.9744L3.05526 20.5194L3.33395 23.0038ZM12.1208 22.0182L16.7079 21.5036L16.4292 19.0192L11.8422 19.5338L12.1208 22.0182Z" fill="#007836"/>
<path fillRule="evenodd" clipRule="evenodd" d="M64.2794 18.878L72.6989 80.3617L73.4563 86.5299C73.7003 88.517 72.3063 90.3234 70.3427 90.5645L17.9007 97.0035C15.9371 97.2446 14.1475 95.8292 13.9035 93.8421L5.7535 27.4656C5.61889 26.3692 6.39852 25.3713 7.49486 25.2367L13.9825 24.4402" fill="#E7FFF2"/>
<path d="M21.0613 4.60742C21.0613 3.08864 22.2925 1.85742 23.8113 1.85742H69.368C70.0971 1.85742 70.7963 2.14692 71.312 2.66228L84.7552 16.0972C85.2713 16.613 85.5613 17.3127 85.5613 18.0423V80.6074C85.5613 82.1262 84.3301 83.3574 82.8113 83.3574H23.8113C22.2925 83.3574 21.0613 82.1262 21.0613 80.6074V4.60742Z" fill="white" stroke="#007836" stroke-width="2.5"/>
<path d="M69.811 3.00977V14.6069C69.811 16.2638 71.1542 17.6069 72.811 17.6069H80.7446" stroke="#007836" stroke-width="2.5" stroke-linecap="round" strokeLinejoin="round"/>
<path d="M31.1394 68.6074H57.1394M31.1394 17.6074H57.1394H31.1394ZM31.1394 29.6074H74.1394H31.1394ZM31.1394 42.6074H74.1394H31.1394ZM31.1394 55.6074H74.1394H31.1394Z" stroke="#06B756" stroke-width="2.5" stroke-linecap="round" strokeLinejoin="round"/>
</svg>
