<svg width="20" height="20" viewBox="0 0 20 20" fill="none" xmlns="http://www.w3.org/2000/svg">
<path d="M15.0359 11.2916C14.6859 11.6332 14.4859 12.1249 14.5359 12.6499C14.6109 13.5499 15.4359 14.2082 16.3359 14.2082H17.9193V15.1999C17.9193 16.9249 16.5109 18.3333 14.7859 18.3333H5.21927C3.49427 18.3333 2.08594 16.9249 2.08594 15.1999V9.59159C2.08594 7.86659 3.49427 6.45825 5.21927 6.45825H14.7859C16.5109 6.45825 17.9193 7.86659 17.9193 9.59159V10.7916H16.2359C15.7693 10.7916 15.3443 10.9749 15.0359 11.2916Z" stroke="white" stroke-width="1.25" stroke-linecap="round" stroke-linejoin="round"/>
<path d="M2.08594 10.3411V6.53281C2.08594 5.54114 2.69427 4.65777 3.61927 4.30777L10.2359 1.80777C11.2693 1.41611 12.3776 2.1828 12.3776 3.29113V6.45779" stroke="white" stroke-width="1.25" stroke-linecap="round" stroke-linejoin="round"/>
<path d="M18.8016 11.6427V13.3594C18.8016 13.8177 18.4349 14.1927 17.9683 14.2094H16.3349C15.4349 14.2094 14.6099 13.551 14.5349 12.651C14.4849 12.126 14.6849 11.6344 15.0349 11.2927C15.3433 10.976 15.7683 10.7927 16.2349 10.7927H17.9683C18.4349 10.8094 18.8016 11.1844 18.8016 11.6427Z" stroke="white" stroke-width="1.25" stroke-linecap="round" stroke-linejoin="round"/>
<path d="M5.83594 10H11.6693" stroke="white" stroke-width="1.25" stroke-linecap="round" stroke-linejoin="round"/>
</svg>
