<svg width="20" height="20" viewBox="0 0 20 20" fill="none" xmlns="http://www.w3.org/2000/svg">
<path d="M2.51172 9.34985V13.0915C2.51172 16.8332 4.01172 18.3332 7.75338 18.3332H12.2451C15.9867 18.3332 17.4867 16.8332 17.4867 13.0915V9.34985" stroke="white" stroke-width="1.5" stroke-linecap="round" stroke-linejoin="round"/>
<path d="M9.99779 10.0003C11.5228 10.0003 12.6478 8.75866 12.4978 7.23366L11.9478 1.66699H8.05613L7.49779 7.23366C7.34779 8.75866 8.47279 10.0003 9.99779 10.0003Z" stroke="white" stroke-width="1.5" stroke-linecap="round" stroke-linejoin="round"/>
<path d="M15.2557 10.0003C16.9391 10.0003 18.1724 8.63366 18.0057 6.95866L17.7724 4.66699C17.4724 2.50033 16.6391 1.66699 14.4557 1.66699H11.9141L12.4974 7.50866C12.6391 8.88366 13.8807 10.0003 15.2557 10.0003Z" stroke="white" stroke-width="1.5" stroke-linecap="round" stroke-linejoin="round"/>
<path d="M4.69478 10.0003C6.06978 10.0003 7.31144 8.88366 7.44477 7.50866L7.62811 5.66699L8.02811 1.66699H5.48644C3.30311 1.66699 2.46978 2.50033 2.16978 4.66699L1.94478 6.95866C1.77811 8.63366 3.01144 10.0003 4.69478 10.0003Z" stroke="white" stroke-width="1.5" stroke-linecap="round" stroke-linejoin="round"/>
<path d="M10.0052 14.167C8.61354 14.167 7.92188 14.8587 7.92188 16.2503V18.3337H12.0885V16.2503C12.0885 14.8587 11.3969 14.167 10.0052 14.167Z" stroke="white" stroke-width="1.5" stroke-linecap="round" stroke-linejoin="round"/>
</svg>
